<svg width="29" height="28" viewBox="0 0 29 28" fill="none" xmlns="http://www.w3.org/2000/svg">
<path d="M0 27.0486L6.59722 8.57636L18.4722 20.4514L0 27.0486ZM4.35417 22.6944L13.6562 19.3958L7.65278 13.3923L4.35417 22.6944ZM16.559 14.5798L15.1736 13.1944L22.5625 5.80553C23.2662 5.10182 24.1128 4.74997 25.1024 4.74997C26.092 4.74997 26.9387 5.10182 27.6424 5.80553L28.434 6.59719L27.0486 7.98261L26.2569 7.19094C25.9491 6.88307 25.5642 6.72914 25.1024 6.72914C24.6406 6.72914 24.2558 6.88307 23.9479 7.19094L16.559 14.5798ZM11.2812 9.30206L9.89583 7.91664L10.6875 7.12497C10.9954 6.8171 11.1493 6.44326 11.1493 6.00344C11.1493 5.56363 10.9954 5.18979 10.6875 4.88192L9.82986 4.02428L11.2153 2.63886L12.0729 3.4965C12.7766 4.2002 13.1285 5.03585 13.1285 6.00344C13.1285 6.97104 12.7766 7.80668 12.0729 8.51039L11.2812 9.30206ZM13.9201 11.9409L12.5347 10.5555L17.2847 5.80553C17.5926 5.49766 17.7465 5.11282 17.7465 4.65101C17.7465 4.18921 17.5926 3.80437 17.2847 3.4965L15.1736 1.38539L16.559 -2.86102e-05L18.6701 2.11108C19.3738 2.81479 19.7257 3.66143 19.7257 4.65101C19.7257 5.6406 19.3738 6.48724 18.6701 7.19094L13.9201 11.9409ZM19.1979 17.2187L17.8125 15.8333L19.9236 13.7222C20.6273 13.0185 21.474 12.6666 22.4635 12.6666C23.4531 12.6666 24.2998 13.0185 25.0035 13.7222L27.1146 15.8333L25.7292 17.2187L23.6181 15.1076C23.3102 14.7997 22.9253 14.6458 22.4635 14.6458C22.0017 14.6458 21.6169 14.7997 21.309 15.1076L19.1979 17.2187Z" fill="#E6192A"/>
</svg>
