<svg width="19" height="14" viewBox="0 0 19 14" fill="none" xmlns="http://www.w3.org/2000/svg">
<path d="M0 13.3334V11C0 10.5278 0.121528 10.0938 0.364583 9.69796C0.607639 9.30212 0.930556 9.00004 1.33333 8.79171C2.19444 8.36115 3.06944 8.03824 3.95833 7.82296C4.84722 7.60768 5.75 7.50004 6.66667 7.50004C7.58333 7.50004 8.48611 7.60768 9.375 7.82296C10.2639 8.03824 11.1389 8.36115 12 8.79171C12.4028 9.00004 12.7257 9.30212 12.9688 9.69796C13.2118 10.0938 13.3333 10.5278 13.3333 11V13.3334H0ZM15 13.3334V10.8334C15 10.2223 14.8299 9.63546 14.4896 9.07296C14.1493 8.51046 13.6667 8.02782 13.0417 7.62504C13.75 7.70837 14.4167 7.85074 15.0417 8.05212C15.6667 8.25351 16.25 8.50004 16.7917 8.79171C17.2917 9.06949 17.6736 9.37851 17.9375 9.71879C18.2014 10.0591 18.3333 10.4306 18.3333 10.8334V13.3334H15ZM6.66667 6.66671C5.75 6.66671 4.96528 6.34032 4.3125 5.68754C3.65972 5.03476 3.33333 4.25004 3.33333 3.33337C3.33333 2.41671 3.65972 1.63198 4.3125 0.979207C4.96528 0.326429 5.75 4.00543e-05 6.66667 4.00543e-05C7.58333 4.00543e-05 8.36806 0.326429 9.02083 0.979207C9.67361 1.63198 10 2.41671 10 3.33337C10 4.25004 9.67361 5.03476 9.02083 5.68754C8.36806 6.34032 7.58333 6.66671 6.66667 6.66671ZM15 3.33337C15 4.25004 14.6736 5.03476 14.0208 5.68754C13.3681 6.34032 12.5833 6.66671 11.6667 6.66671C11.5139 6.66671 11.3194 6.64935 11.0833 6.61462C10.8472 6.5799 10.6528 6.54171 10.5 6.50004C10.875 6.0556 11.1632 5.56254 11.3646 5.02087C11.566 4.47921 11.6667 3.91671 11.6667 3.33337C11.6667 2.75004 11.566 2.18754 11.3646 1.64587C11.1632 1.10421 10.875 0.611152 10.5 0.166707C10.6944 0.0972624 10.8889 0.052124 11.0833 0.0312901C11.2778 0.010457 11.4722 4.00543e-05 11.6667 4.00543e-05C12.5833 4.00543e-05 13.3681 0.326429 14.0208 0.979207C14.6736 1.63198 15 2.41671 15 3.33337ZM1.66667 11.6667H11.6667V11C11.6667 10.8473 11.6285 10.7084 11.5521 10.5834C11.4757 10.4584 11.375 10.3612 11.25 10.2917C10.5 9.91671 9.74306 9.63546 8.97917 9.44796C8.21528 9.26046 7.44444 9.16671 6.66667 9.16671C5.88889 9.16671 5.11806 9.26046 4.35417 9.44796C3.59028 9.63546 2.83333 9.91671 2.08333 10.2917C1.95833 10.3612 1.85764 10.4584 1.78125 10.5834C1.70486 10.7084 1.66667 10.8473 1.66667 11V11.6667ZM6.66667 5.00004C7.125 5.00004 7.51736 4.83685 7.84375 4.51046C8.17014 4.18407 8.33333 3.79171 8.33333 3.33337C8.33333 2.87504 8.17014 2.48268 7.84375 2.15629C7.51736 1.8299 7.125 1.66671 6.66667 1.66671C6.20833 1.66671 5.81597 1.8299 5.48958 2.15629C5.16319 2.48268 5 2.87504 5 3.33337C5 3.79171 5.16319 4.18407 5.48958 4.51046C5.81597 4.83685 6.20833 5.00004 6.66667 5.00004Z" fill="white"/>
</svg>
