<svg width="22" height="15" viewBox="0 0 22 15" fill="none" xmlns="http://www.w3.org/2000/svg">
<path d="M10.6944 11.6666C11.9097 11.6666 12.9427 11.2412 13.7934 10.3905C14.6441 9.53985 15.0694 8.50686 15.0694 7.29158C15.0694 6.07631 14.6441 5.04332 13.7934 4.19263C12.9427 3.34193 11.9097 2.91658 10.6944 2.91658C9.47917 2.91658 8.44618 3.34193 7.59549 4.19263C6.74479 5.04332 6.31944 6.07631 6.31944 7.29158C6.31944 8.50686 6.74479 9.53985 7.59549 10.3905C8.44618 11.2412 9.47917 11.6666 10.6944 11.6666ZM10.6944 9.91658C9.96528 9.91658 9.34549 9.66138 8.83507 9.15096C8.32465 8.64054 8.06944 8.02075 8.06944 7.29158C8.06944 6.56242 8.32465 5.94263 8.83507 5.43221C9.34549 4.92179 9.96528 4.66658 10.6944 4.66658C11.4236 4.66658 12.0434 4.92179 12.5538 5.43221C13.0642 5.94263 13.3194 6.56242 13.3194 7.29158C13.3194 8.02075 13.0642 8.64054 12.5538 9.15096C12.0434 9.66138 11.4236 9.91658 10.6944 9.91658ZM10.6944 14.5833C8.3287 14.5833 6.17361 13.923 4.22917 12.6023C2.28472 11.2817 0.875 9.51149 0 7.29158C0.875 5.07168 2.28472 3.30142 4.22917 1.98082C6.17361 0.660219 8.3287 -8.2016e-05 10.6944 -8.2016e-05C13.0602 -8.2016e-05 15.2153 0.660219 17.1597 1.98082C19.1042 3.30142 20.5139 5.07168 21.3889 7.29158C20.5139 9.51149 19.1042 11.2817 17.1597 12.6023C15.2153 13.923 13.0602 14.5833 10.6944 14.5833ZM10.6944 12.6388C12.5255 12.6388 14.2066 12.1567 15.7378 11.1926C17.2691 10.2285 18.4398 8.92816 19.25 7.29158C18.4398 5.65501 17.2691 4.35466 15.7378 3.39054C14.2066 2.42642 12.5255 1.94436 10.6944 1.94436C8.86343 1.94436 7.18229 2.42642 5.65104 3.39054C4.11979 4.35466 2.94907 5.65501 2.13889 7.29158C2.94907 8.92816 4.11979 10.2285 5.65104 11.1926C7.18229 12.1567 8.86343 12.6388 10.6944 12.6388Z" fill="#C89398"/>
</svg>
