<svg width="18" height="18" viewBox="0 0 18 18" fill="none" xmlns="http://www.w3.org/2000/svg">
<path d="M16.4792 17.5C14.4537 17.5 12.4525 17.0584 10.4757 16.1753C8.49884 15.2922 6.70023 14.0405 5.07986 12.4201C3.45949 10.7998 2.20775 9.00116 1.32465 7.02431C0.441551 5.04745 0 3.0463 0 1.02083C0 0.729166 0.0972222 0.486111 0.291667 0.291666C0.486111 0.0972214 0.729167 0 1.02083 0H4.95833C5.18519 0 5.38773 0.0769672 5.56597 0.230902C5.74421 0.384838 5.84954 0.567129 5.88194 0.777777L6.51389 4.18056C6.5463 4.43981 6.53819 4.65856 6.48958 4.83681C6.44097 5.01505 6.35185 5.16898 6.22222 5.29861L3.86458 7.68056C4.18866 8.28009 4.5735 8.85938 5.0191 9.4184C5.4647 9.97743 5.95486 10.5162 6.48958 11.0347C6.9919 11.537 7.51852 12.0029 8.06944 12.4323C8.62037 12.8617 9.2037 13.2546 9.81944 13.6111L12.1042 11.3264C12.25 11.1806 12.4404 11.0712 12.6753 10.9983C12.9103 10.9253 13.1412 10.9051 13.3681 10.9375L16.7222 11.6181C16.9491 11.6829 17.1354 11.8003 17.2812 11.9705C17.4271 12.1406 17.5 12.331 17.5 12.5417V16.4792C17.5 16.7708 17.4028 17.0139 17.2083 17.2083C17.0139 17.4028 16.7708 17.5 16.4792 17.5ZM2.94097 5.83333L4.54514 4.22917L4.13194 1.94444H1.96875C2.04977 2.6088 2.16319 3.26505 2.30903 3.91319C2.45486 4.56134 2.66551 5.20139 2.94097 5.83333ZM11.6424 14.5347C12.2743 14.8102 12.9184 15.0289 13.5747 15.191C14.2309 15.353 14.8912 15.4583 15.5556 15.5069V13.3681L13.2708 12.9062L11.6424 14.5347Z" fill="#C89398"/>
</svg>
