<svg width="16" height="16" viewBox="0 0 16 16" fill="none" xmlns="http://www.w3.org/2000/svg">
<path d="M7.77778 7.77776C6.70833 7.77776 5.79282 7.39698 5.03125 6.6354C4.26968 5.87383 3.88889 4.95832 3.88889 3.88888C3.88889 2.81943 4.26968 1.90392 5.03125 1.14235C5.79282 0.380774 6.70833 -1.33514e-05 7.77778 -1.33514e-05C8.84722 -1.33514e-05 9.76273 0.380774 10.5243 1.14235C11.2859 1.90392 11.6667 2.81943 11.6667 3.88888C11.6667 4.95832 11.2859 5.87383 10.5243 6.6354C9.76273 7.39698 8.84722 7.77776 7.77778 7.77776ZM0 15.5555V12.8333C0 12.2824 0.141782 11.776 0.425347 11.3142C0.708912 10.8524 1.08565 10.5 1.55556 10.2569C2.56019 9.75462 3.58102 9.37788 4.61806 9.12672C5.65509 8.87557 6.70833 8.74999 7.77778 8.74999C8.84722 8.74999 9.90046 8.87557 10.9375 9.12672C11.9745 9.37788 12.9954 9.75462 14 10.2569C14.4699 10.5 14.8466 10.8524 15.1302 11.3142C15.4138 11.776 15.5556 12.2824 15.5556 12.8333V15.5555H0ZM1.94444 13.6111H13.6111V12.8333C13.6111 12.6551 13.5666 12.493 13.4774 12.3472C13.3883 12.2014 13.2708 12.0879 13.125 12.0069C12.25 11.5694 11.3669 11.2413 10.4757 11.0226C9.58449 10.8038 8.68519 10.6944 7.77778 10.6944C6.87037 10.6944 5.97107 10.8038 5.07986 11.0226C4.18866 11.2413 3.30556 11.5694 2.43056 12.0069C2.28472 12.0879 2.16725 12.2014 2.07812 12.3472C1.989 12.493 1.94444 12.6551 1.94444 12.8333V13.6111ZM7.77778 5.83332C8.3125 5.83332 8.77026 5.64293 9.15104 5.26214C9.53183 4.88135 9.72222 4.4236 9.72222 3.88888C9.72222 3.35415 9.53183 2.8964 9.15104 2.51561C8.77026 2.13482 8.3125 1.94443 7.77778 1.94443C7.24306 1.94443 6.7853 2.13482 6.40451 2.51561C6.02373 2.8964 5.83333 3.35415 5.83333 3.88888C5.83333 4.4236 6.02373 4.88135 6.40451 5.26214C6.7853 5.64293 7.24306 5.83332 7.77778 5.83332Z" fill="#C89398"/>
</svg>
